<svg width="26" height="14" viewBox="0 0 26 14" fill="none" xmlns="http://www.w3.org/2000/svg">
<path d="M3.01409 9.91017L3.26081 9.94471L3.43697 9.76855L8.76864 4.43689L8.97388 4.23164L8.89742 3.95163C8.81396 3.64597 8.81384 3.32353 8.89708 3.01781C8.98031 2.71208 9.14387 2.43421 9.37076 2.21304L9.37082 2.21311L9.37755 2.20629C10.0918 1.4829 11.2417 1.4829 11.956 2.20629L11.9559 2.20634L11.9616 2.2119C12.4459 2.6871 12.5996 3.36104 12.4366 3.94989L12.3588 4.23079L12.5649 4.43689L15.5632 7.43522L15.7394 7.61138L15.9861 7.57684L16.5344 7.50007C16.743 7.50089 16.8184 7.50975 16.872 7.53476L17.1893 7.68286L17.437 7.43522L21.602 3.27022L21.8496 3.02258L21.7015 2.70522C21.6752 2.64878 21.6668 2.56815 21.6668 2.33333C21.6668 1.8471 21.8599 1.38079 22.2037 1.03697C22.5475 0.693154 23.0139 0.5 23.5001 0.5C23.9863 0.5 24.4526 0.693154 24.7964 1.03697C25.1403 1.38079 25.3334 1.8471 25.3334 2.33333C25.3334 2.81956 25.1403 3.28588 24.7964 3.6297C24.4526 3.97351 23.9863 4.16667 23.5001 4.16667C23.2653 4.16667 23.1846 4.15825 23.1282 4.13191L22.8108 3.98381L22.5632 4.23145L18.3982 8.39645L18.1506 8.64409L18.2987 8.96144C18.325 9.01789 18.3334 9.09852 18.3334 9.33333C18.3334 9.81956 18.1403 10.2859 17.7964 10.6297C17.4526 10.9735 16.9863 11.1667 16.5001 11.1667C16.0139 11.1667 15.5475 10.9735 15.2037 10.6297C14.8676 10.2936 14.6755 9.84046 14.667 9.36608L14.7436 8.81932L14.7781 8.57261L14.602 8.39645L11.6036 5.39811L11.4103 5.20479L11.1432 5.26322C10.8403 5.32948 10.4932 5.32948 10.1903 5.26322L9.92318 5.20479L9.72986 5.39811L4.3982 10.7298L4.22204 10.9059L4.25658 11.1527L4.33312 11.6994C4.32466 12.1738 4.13254 12.6269 3.79644 12.963C3.45263 13.3068 2.98631 13.5 2.50008 13.5C2.01385 13.5 1.54754 13.3068 1.20372 12.963C0.859902 12.6192 0.666748 12.1529 0.666748 11.6667C0.666748 11.1804 0.859902 10.7141 1.20372 10.3703C1.53981 10.0342 1.99296 9.84209 2.46734 9.83362L3.01409 9.91017Z" stroke="#2B2E4A"/>
</svg>
