<svg width="14" height="14" viewBox="0 0 14 14" fill="none" xmlns="http://www.w3.org/2000/svg">
<path d="M2.79995 0H4.19995V1.4H9.79995V0H11.2V1.4H11.9C12.2713 1.4 12.6273 1.5475 12.8899 1.81005C13.1525 2.0726 13.3 2.4287 13.3 2.8V12.6C13.3 13.377 12.677 14 11.9 14H2.09995C1.72865 14 1.37255 13.8525 1.11 13.5899C0.847451 13.3274 0.699951 12.9713 0.699951 12.6V2.8C0.699951 2.023 1.32295 1.4 2.09995 1.4H2.79995V0ZM2.09995 4.9V12.6H11.9V4.9H2.09995ZM3.49995 6.3H10.5V7.7H3.49995V6.3Z" fill="#2B2E4A"/>
</svg>
